<svg width="487" height="70" viewBox="0 0 487 70" fill="none" xmlns="http://www.w3.org/2000/svg">
<g clip-path="url(#clip0_34_443)">
<path d="M38.7 31.22C35.49 31.17 31.8 30.84 29.48 28.24C29.15 27.87 28.9 27.48 28.71 27.07C28.07 25.68 28.14 24.09 28.29 22.52C28.39 21.46 28.72 20.03 28.88 18.97C28.88 18.97 34.05 7.89 41.9 3.86C46.83 1.33 51.32 1.1 53.69 0.99C83.95 -0.41 100.94 0.0399995 104.79 0.18C105.22 0.2 105.52 0.61 105.41 1.03L101.48 14.86C101.4 15.15 101.13 15.35 100.83 15.35C91.95 15.32 83.06 15.24 74.18 15.13C66.75 15.04 58.75 14.08 51.74 17.18C51.53 17.27 51.33 17.37 51.12 17.46C50.18 17.92 49.27 18.45 48.43 19.08C47.52 19.75 46.68 20.51 45.93 21.36C45.11 22.28 44.4 23.29 43.81 24.36C43.14 25.57 42.18 30.04 41.78 31.36" fill="#283D77"/>
<path d="M43.64 34.45C44.69 34.36 45.74 34.29 46.79 34.22C46.95 34.22 48.99 34.14 48.99 34C48.99 33.77 47.74 33.66 47.61 33.64C44.7 33.17 41.77 32.87 38.83 32.64C36.92 32.49 35 32.31 33.11 31.96C32.43 31.83 31.76 31.66 31.1 31.45C30.18 31.16 29.33 30.86 28.58 30.24C26.61 28.62 26.2 25.98 26.5 23.58C26.58 22.89 26.69 22.32 26.69 22.32C26.87 21.36 27 21.16 26.93 21.12C26.93 21.12 23.34 24.47 21 29.15C20.33 30.5 19.66 32.12 19.83 33.67C19.98 35.03 21.04 35.98 22.37 36.14C23.05 36.22 23.73 36.14 24.41 36.14C26.53 36.12 28.64 35.96 30.75 35.76C35.05 35.36 39.34 34.82 43.64 34.46V34.45Z" fill="#3990CC"/>
<path d="M0 31.68C5.71 34.7 10.61 35.78 13.87 36.22C16.81 36.61 19.16 36.57 23.32 36.51C29.11 36.43 33.09 36.01 36.41 35.72C45.37 34.93 50.71 34.46 57.32 34.71C62.87 34.92 68.45 35.22 73.82 36.79C75 37.14 86.31 40.75 85.55 42.21C85.29 42.71 84.09 42.58 84.09 42.58L70.99 42.49C66.6 42.58 62.22 42.56 57.83 42.63C53.34 42.7 48.84 42.78 44.35 42.88C42.17 42.93 39.98 43.02 37.8 43.03C35.62 43.04 33.4 43.18 31.18 43.03C29.33 42.91 27.36 42.8 25.59 42.2C24.3 41.85 23.28 41.3 22.34 40.32C22.22 40.2 21.76 39.81 21.82 39.6L23.11 39.55C23.11 39.55 26.77 39.61 28.59 39.51C28.95 39.49 31.57 39.49 31.54 38.95C31.54 38.84 28.42 38.99 23.57 39.02C14.02 39.09 9.16 39.14 5.08 36.63C3.81 35.85 1.86 34.39 0 31.67L0 31.68Z" fill="#3990CC"/>
<path d="M22.62 42.81L17.86 67.8C17.67 68.59 18.26 69.33 19.07 69.33C22.26 69.31 29.37 69.43 31.92 69.33C32.48 69.31 32.95 68.54 33.08 68L37.65 47.07C37.84 46.28 37.58 45.24 36.77 45.24C33.33 45.24 25.47 45.39 22.62 42.81Z" fill="#283D77"/>
<path d="M125.38 0.410004C126.98 0.410004 127.64 1.26 127.36 2.86L119.46 39.74C118.99 41.81 118.8 43.5 118.8 44.91C118.8 49.24 121.15 50.37 127.36 50.37H165.47C167.07 50.37 167.73 51.22 167.45 52.82L165.1 63.83C164.72 65.43 163.78 66.28 162.09 66.28H123.42C107.8 66.28 100.93 61.86 100.93 50.57C100.93 47.93 101.31 44.92 102.06 41.44L110.23 2.86C110.61 1.26 111.55 0.410004 113.15 0.410004H125.38Z" fill="#283D77"/>
<path d="M175.88 0.410004C177.2 0.410004 177.76 0.790004 178.23 1.73L194.13 33.63L223.59 1.73C224.53 0.790004 225.19 0.410004 226.51 0.410004H241.19C242.41 0.410004 242.7 1.54 241.76 2.57L199.61 46.51L195.94 63.82C195.66 65.42 194.62 66.27 192.93 66.27H180.79C179.1 66.27 178.53 65.42 178.91 63.82L182.49 46.51L159.42 2.58C158.86 1.54 159.61 0.420004 160.83 0.420004H175.89L175.88 0.410004Z" fill="#283D77"/>
<path d="M263.77 0.410004C265.37 0.410004 266.03 1.26 265.75 2.86L257.85 39.74C257.38 41.81 257.19 43.5 257.19 44.91C257.19 49.24 259.54 50.37 265.75 50.37H303.86C305.46 50.37 306.12 51.22 305.84 52.82L303.49 63.83C303.11 65.43 302.17 66.28 300.48 66.28H261.81C246.19 66.28 239.32 61.86 239.32 50.57C239.32 47.93 239.7 44.92 240.45 41.44L248.64 2.86C249.02 1.26 249.96 0.410004 251.56 0.410004H263.79H263.77Z" fill="#283D77"/>
<path d="M337.02 0.410004C338.62 0.410004 339.28 1.26 339 2.86L331.1 39.74C330.63 41.81 330.44 43.5 330.44 44.91C330.44 49.24 332.79 50.37 339 50.37H365.16C373.25 50.37 375.79 48.21 377.58 39.74L385.39 2.86C385.77 1.26 386.71 0.410004 388.4 0.410004H400.54C402.14 0.410004 402.8 1.26 402.52 2.86L394.33 41.44C390.47 59.51 381.72 66.28 362.43 66.28H335.05C319.43 66.28 312.56 61.86 312.56 50.57C312.56 47.93 312.94 44.92 313.69 41.44L321.88 2.86C322.26 1.26 323.2 0.410004 324.8 0.410004H337.03H337.02Z" fill="#283D77"/>
<path d="M485.51 0.410004C487.49 0.410004 487.02 2.2 485.98 3.23L452.48 32.49L474.69 63.45C475.44 64.48 475.07 66.27 473.09 66.27H457.75C455.96 66.27 455.3 65.8 454.55 64.67L438.74 42.75L413.43 64.67C412.21 65.8 411.36 66.27 409.57 66.27H394.99C393.01 66.27 393.39 64.48 394.52 63.45L430.75 31.65L410.43 3.23C409.68 2.19 410.15 0.410004 412.12 0.410004H427.46C429.25 0.410004 429.91 0.880004 430.66 2.01L444.49 21.39L467.07 2.01C468.2 0.880004 469.14 0.410004 470.93 0.410004H485.51Z" fill="#283D77"/>
</g>
<defs>
<clipPath id="clip0_34_443">
<rect width="486.87" height="69.37" fill="white"/>
</clipPath>
</defs>
</svg>
