<svg width="395" height="56" viewBox="0 0 395 56" fill="none" xmlns="http://www.w3.org/2000/svg">
<path d="M31.3975 25.2028C28.7932 25.1624 25.7995 24.896 23.9173 22.7972C23.6495 22.4985 23.4467 22.1836 23.2926 21.8527C22.7733 20.7306 22.8301 19.447 22.9518 18.1796C23.0329 17.3239 23.3007 16.1695 23.4305 15.3138C23.4305 15.3138 27.6249 6.3693 33.9937 3.11603C37.9934 1.07364 41.6362 0.887973 43.559 0.799174C68.109 -0.330997 81.8931 0.0322723 85.0166 0.145289C85.3655 0.161435 85.6089 0.492413 85.5197 0.831465L82.3312 11.9959C82.2663 12.2301 82.0473 12.3915 81.8039 12.3915C74.5995 12.3673 67.387 12.3027 60.1826 12.2139C54.1546 12.1413 47.6642 11.3663 41.9769 13.8688C41.8065 13.9415 41.6443 14.0222 41.4739 14.0948C40.7113 14.4662 39.973 14.894 39.2915 15.4026C38.5532 15.9435 37.8717 16.557 37.2632 17.2432C36.598 17.9859 36.0219 18.8012 35.5433 19.665C34.9997 20.6418 34.2208 24.2502 33.8963 25.3158" fill="black"/>
<path d="M35.4053 27.8104C36.2572 27.7378 37.1091 27.6812 37.961 27.6247C38.0908 27.6247 39.7458 27.5602 39.7458 27.4471C39.7458 27.2615 38.7317 27.1727 38.6262 27.1565C36.2653 26.7771 33.8882 26.5349 31.503 26.3493C29.9534 26.2282 28.3957 26.0829 26.8623 25.8003C26.3106 25.6954 25.767 25.5581 25.2316 25.3886C24.4852 25.1545 23.7956 24.9123 23.1871 24.4118C21.5888 23.104 21.2562 20.9729 21.4996 19.0354C21.5645 18.4784 21.6537 18.0183 21.6537 18.0183C21.7998 17.2433 21.9052 17.0819 21.8484 17.0496C21.8484 17.0496 18.9359 19.7539 17.0374 23.5319C16.4938 24.6217 15.9503 25.9295 16.0882 27.1807C16.2099 28.2786 17.0699 29.0455 18.1489 29.1747C18.7006 29.2393 19.2523 29.1747 19.804 29.1747C21.5239 29.1585 23.2358 29.0294 24.9476 28.8679C28.4362 28.545 31.9167 28.1091 35.4053 27.8185V27.8104Z" fill="black"/>
<path d="M0 25.5742C4.63255 28.0122 8.60795 28.884 11.2528 29.2392C13.638 29.5541 15.5446 29.5218 18.9196 29.4733C23.6171 29.4087 26.8461 29.0697 29.5396 28.8356C36.8089 28.1978 41.1413 27.8184 46.504 28.0202C51.0067 28.1898 55.5338 28.432 59.8905 29.6994C60.8479 29.9819 70.0237 32.8961 69.4071 34.0747C69.1962 34.4784 68.2226 34.3734 68.2226 34.3734L57.5945 34.3008C54.0329 34.3734 50.4794 34.3573 46.9178 34.4138C43.275 34.4703 39.6241 34.5349 35.9814 34.6156C34.2127 34.656 32.436 34.7286 30.6673 34.7367C28.8987 34.7448 27.0976 34.8578 25.2965 34.7367C23.7956 34.6398 22.1973 34.551 20.7613 34.0667C19.7147 33.7841 18.8872 33.3401 18.1246 32.549C18.0272 32.4521 17.654 32.1373 17.7027 31.9678L18.7493 31.9274C18.7493 31.9274 21.7186 31.9758 23.1952 31.8951C23.4873 31.879 25.6129 31.879 25.5886 31.4431C25.5886 31.3543 23.0573 31.4753 19.1225 31.4996C11.3745 31.5561 7.43155 31.5964 4.12143 29.5702C3.09107 28.9405 1.50903 27.7619 0 25.5662L0 25.5742Z" fill="black"/>
<path d="M18.3517 34.5591L14.4899 54.7326C14.3358 55.3704 14.8144 55.9678 15.4716 55.9678C18.0596 55.9516 23.828 56.0485 25.8969 55.9678C26.3512 55.9516 26.7325 55.33 26.838 54.8941L30.5456 37.998C30.6998 37.3603 30.4888 36.5207 29.8317 36.5207C27.0408 36.5207 20.6639 36.6418 18.3517 34.5591Z" fill="black"/>
<path d="M101.721 0.331055C103.019 0.331055 103.555 1.01723 103.328 2.30885L96.9185 32.0808C96.5372 33.7518 96.383 35.1161 96.383 36.2544C96.383 39.7498 98.2896 40.662 103.328 40.662H134.247C135.545 40.662 136.08 41.3482 135.853 42.6398L133.946 51.5278C133.638 52.8194 132.876 53.5056 131.504 53.5056H100.131C87.4587 53.5056 81.885 49.9375 81.885 40.8235C81.885 38.6923 82.1933 36.2624 82.8018 33.4532L89.4301 2.30885C89.7384 1.01723 90.5011 0.331055 91.7991 0.331055H101.721Z" fill="black"/>
<path d="M142.692 0.331055C143.763 0.331055 144.218 0.637816 144.599 1.39665L157.499 27.1484L181.4 1.39665C182.162 0.637816 182.698 0.331055 183.769 0.331055H195.679C196.668 0.331055 196.904 1.24326 196.141 2.07475L161.945 37.546L158.967 51.5198C158.74 52.8114 157.896 53.4975 156.525 53.4975H146.676C145.305 53.4975 144.842 52.8114 145.151 51.5198L148.055 37.546L129.338 2.08282C128.884 1.24326 129.492 0.339127 130.482 0.339127H142.7L142.692 0.331055Z" fill="black"/>
<path d="M213.998 0.331055C215.296 0.331055 215.831 1.01723 215.604 2.30885L209.195 32.0808C208.814 33.7518 208.659 35.1161 208.659 36.2544C208.659 39.7498 210.566 40.662 215.604 40.662H246.523C247.821 40.662 248.357 41.3482 248.129 42.6398L246.223 51.5278C245.915 52.8194 245.152 53.5056 243.781 53.5056H212.408C199.735 53.5056 194.161 49.9375 194.161 40.8235C194.161 38.6923 194.47 36.2624 195.078 33.4532L201.723 2.30885C202.031 1.01723 202.794 0.331055 204.092 0.331055H214.014H213.998Z" fill="black"/>
<path d="M273.426 0.331055C274.724 0.331055 275.26 1.01723 275.032 2.30885L268.623 32.0808C268.242 33.7518 268.088 35.1161 268.088 36.2544C268.088 39.7498 269.994 40.662 275.032 40.662H296.256C302.82 40.662 304.88 38.9183 306.332 32.0808L312.669 2.30885C312.977 1.01723 313.74 0.331055 315.111 0.331055H324.96C326.258 0.331055 326.794 1.01723 326.566 2.30885L319.922 33.4532C316.79 48.0404 309.691 53.5056 294.041 53.5056H271.828C259.155 53.5056 253.581 49.9375 253.581 40.8235C253.581 38.6923 253.89 36.2624 254.498 33.4532L261.143 2.30885C261.451 1.01723 262.214 0.331055 263.512 0.331055H273.434H273.426Z" fill="black"/>
<path d="M393.897 0.331055C395.503 0.331055 395.122 1.77606 394.278 2.60754L367.099 26.2281L385.118 51.2211C385.727 52.0525 385.427 53.4975 383.82 53.4975H371.375C369.923 53.4975 369.387 53.1181 368.779 52.2059L355.952 34.5107L335.418 52.2059C334.428 53.1181 333.738 53.4975 332.286 53.4975H320.457C318.851 53.4975 319.159 52.0525 320.076 51.2211L349.47 25.55L332.984 2.60754C332.375 1.76799 332.757 0.331055 334.355 0.331055H346.8C348.253 0.331055 348.788 0.710469 349.397 1.62268L360.617 17.2675L378.936 1.62268C379.853 0.710469 380.616 0.331055 382.068 0.331055H393.897Z" fill="black"/>
</svg>
