<svg width="575" height="378" viewBox="0 0 575 378" fill="none" xmlns="http://www.w3.org/2000/svg">
<g clip-path="url(#clip0_15_45)">
<path d="M211.064 170.119C193.557 169.847 173.433 168.048 160.78 153.881C158.98 151.865 157.616 149.74 156.58 147.506C153.09 139.931 153.472 131.267 154.29 122.712C154.835 116.936 156.635 109.144 157.507 103.368C157.507 103.368 185.704 42.9929 228.517 21.0333C255.404 7.24722 279.892 5.99394 292.818 5.39455C457.851 -2.23411 550.512 0.21796 571.51 0.980826C573.855 1.08981 575.491 3.32391 574.891 5.61251L553.457 80.9727C553.021 82.553 551.548 83.6428 549.912 83.6428C501.482 83.4793 452.997 83.0434 404.567 82.444C364.045 81.9536 320.414 76.7225 282.183 93.6145C281.037 94.1049 279.946 94.6498 278.801 95.1403C273.674 97.6468 268.711 100.535 264.13 103.968C259.167 107.619 254.586 111.76 250.496 116.392C246.023 121.405 242.151 126.908 238.933 132.739C235.279 139.332 230.044 163.689 227.862 170.882" fill="#283D77"/>
<path d="M238.006 187.719C243.733 187.229 249.459 186.848 255.186 186.466C256.058 186.466 267.184 186.03 267.184 185.267C267.184 184.014 260.367 183.415 259.658 183.306C243.787 180.745 227.808 179.11 211.773 177.857C201.356 177.039 190.885 176.059 180.577 174.151C176.868 173.443 173.214 172.517 169.615 171.372C164.597 169.792 159.962 168.157 155.871 164.779C145.127 155.952 142.891 141.566 144.527 128.488C144.963 124.729 145.563 121.623 145.563 121.623C146.545 116.392 147.254 115.302 146.872 115.084C146.872 115.084 127.293 133.338 114.531 158.84C110.877 166.196 107.223 175.023 108.15 183.469C108.968 190.88 114.749 196.057 122.003 196.928C125.711 197.364 129.42 196.928 133.129 196.928C144.691 196.819 156.198 195.948 167.706 194.858C191.158 192.678 214.555 189.736 238.006 187.774V187.719Z" fill="#3990CC"/>
<path d="M0 172.626C31.1415 189.082 57.8654 194.967 75.645 197.364C91.6793 199.489 104.496 199.271 127.184 198.944C158.762 198.509 180.468 196.22 198.575 194.64C247.441 190.335 276.565 187.774 312.615 189.136C342.884 190.281 373.316 191.915 402.604 200.47C409.039 202.377 470.722 222.048 466.577 230.004C465.159 232.729 458.615 232.02 458.615 232.02L387.169 231.53C363.227 232.02 339.339 231.911 315.396 232.293C290.909 232.674 266.366 233.11 241.878 233.655C229.989 233.927 218.045 234.418 206.156 234.472C194.266 234.527 182.159 235.29 170.051 234.472C159.962 233.818 149.217 233.219 139.564 229.95C132.529 228.042 126.966 225.045 121.839 219.705C121.185 219.051 118.676 216.926 119.003 215.782L126.039 215.51C126.039 215.51 146 215.837 155.926 215.292C157.889 215.183 172.178 215.183 172.015 212.24C172.015 211.641 154.999 212.458 128.547 212.622C76.4631 213.003 49.9573 213.275 27.7056 199.598C20.7792 195.348 10.1442 187.393 0 172.571L0 172.626Z" fill="#3990CC"/>
<path d="M123.366 233.273L97.4059 369.445C96.3697 373.75 99.5875 377.782 104.005 377.782C121.403 377.673 160.18 378.327 174.087 377.782C177.141 377.673 179.705 373.477 180.414 370.535L205.338 256.486C206.374 252.182 204.956 246.515 200.538 246.515C181.777 246.515 138.91 247.332 123.366 233.273Z" fill="#283D77"/>
</g>
<defs>
<clipPath id="clip0_15_45">
<rect width="575" height="378" fill="white"/>
</clipPath>
</defs>
</svg>
